<svg width="1440" height="1024" viewBox="0 0 1440 1024" fill="none" xmlns="http://www.w3.org/2000/svg">
<mask id="mask0_29_212" style="mask-type:alpha" maskUnits="userSpaceOnUse" x="-187" y="-68" width="1887" height="1174">
<g style="mix-blend-mode:multiply">
<line x1="766.423" y1="-62.4519" x2="766.423" y2="1099.51" stroke="#9747FF" stroke-width="0.992458"/>
<line x1="290.039" y1="-62.4519" x2="290.039" y2="1099.51" stroke="#9747FF" stroke-width="0.992458"/>
<line x1="1242.8" y1="-62.4523" x2="1242.8" y2="1099.51" stroke="#9747FF" stroke-width="0.992458"/>
<line x1="51.8522" y1="-62.4519" x2="51.8521" y2="1099.51" stroke="#9747FF" stroke-width="0.992458"/>
<line x1="1004.61" y1="-62.4519" x2="1004.61" y2="1099.51" stroke="#9747FF" stroke-width="0.992458"/>
<line x1="528.231" y1="-62.4519" x2="528.231" y2="1099.51" stroke="#9747FF" stroke-width="0.992458"/>
<line x1="885.515" y1="-62.4519" x2="885.515" y2="1099.51" stroke="#9747FF" stroke-width="0.992458"/>
<line x1="409.136" y1="-62.4519" x2="409.136" y2="1099.51" stroke="#9747FF" stroke-width="0.992458"/>
<line x1="1361.9" y1="-62.4523" x2="1361.9" y2="1099.51" stroke="#9747FF" stroke-width="0.992458"/>
<line x1="170.944" y1="-62.4519" x2="170.944" y2="1099.51" stroke="#9747FF" stroke-width="0.992458"/>
<line x1="1123.7" y1="-62.4519" x2="1123.7" y2="1099.51" stroke="#9747FF" stroke-width="0.992458"/>
<line x1="647.323" y1="-62.4519" x2="647.323" y2="1099.51" stroke="#9747FF" stroke-width="0.992458"/>
<line x1="806.119" y1="-62.4519" x2="806.119" y2="1099.51" stroke="#9747FF" stroke-width="0.992458"/>
<line x1="329.735" y1="-62.4519" x2="329.735" y2="1099.51" stroke="#9747FF" stroke-width="0.992458"/>
<line x1="1282.5" y1="-62.4523" x2="1282.5" y2="1099.51" stroke="#9747FF" stroke-width="0.992458"/>
<line x1="91.5487" y1="-62.4519" x2="91.5486" y2="1099.51" stroke="#9747FF" stroke-width="0.992458"/>
<line x1="1044.31" y1="-62.4519" x2="1044.31" y2="1099.51" stroke="#9747FF" stroke-width="0.992458"/>
<line x1="567.927" y1="-62.4519" x2="567.927" y2="1099.51" stroke="#9747FF" stroke-width="0.992458"/>
<line x1="925.214" y1="-62.4519" x2="925.214" y2="1099.51" stroke="#9747FF" stroke-width="0.992458"/>
<line x1="448.835" y1="-62.4519" x2="448.835" y2="1099.51" stroke="#9747FF" stroke-width="0.992458"/>
<line x1="1401.6" y1="-62.4523" x2="1401.6" y2="1099.51" stroke="#9747FF" stroke-width="0.992458"/>
<line x1="210.643" y1="-62.4519" x2="210.643" y2="1099.51" stroke="#9747FF" stroke-width="0.992458"/>
<line x1="1163.4" y1="-62.4519" x2="1163.4" y2="1099.51" stroke="#9747FF" stroke-width="0.992458"/>
<line x1="687.025" y1="-62.4519" x2="687.025" y2="1099.51" stroke="#9747FF" stroke-width="0.992458"/>
<line x1="786.271" y1="-62.4519" x2="786.271" y2="1099.51" stroke="#9747FF" stroke-width="0.992458"/>
<line x1="309.887" y1="-62.4519" x2="309.887" y2="1099.51" stroke="#9747FF" stroke-width="0.992458"/>
<line x1="1262.65" y1="-62.4523" x2="1262.65" y2="1099.51" stroke="#9747FF" stroke-width="0.992458"/>
<line x1="71.7004" y1="-62.4519" x2="71.7004" y2="1099.51" stroke="#9747FF" stroke-width="0.992458"/>
<line x1="1024.46" y1="-62.4519" x2="1024.46" y2="1099.51" stroke="#9747FF" stroke-width="0.992458"/>
<line x1="548.079" y1="-62.4519" x2="548.079" y2="1099.51" stroke="#9747FF" stroke-width="0.992458"/>
<line x1="905.363" y1="-62.4519" x2="905.363" y2="1099.51" stroke="#9747FF" stroke-width="0.992458"/>
<line x1="428.985" y1="-62.4519" x2="428.984" y2="1099.51" stroke="#9747FF" stroke-width="0.992458"/>
<line x1="1381.74" y1="-62.4523" x2="1381.74" y2="1099.51" stroke="#9747FF" stroke-width="0.992458"/>
<line x1="190.795" y1="-62.4519" x2="190.795" y2="1099.51" stroke="#9747FF" stroke-width="0.992458"/>
<line x1="1143.56" y1="-62.4519" x2="1143.56" y2="1099.51" stroke="#9747FF" stroke-width="0.992458"/>
<line x1="667.177" y1="-62.4519" x2="667.176" y2="1099.51" stroke="#9747FF" stroke-width="0.992458"/>
<line x1="825.968" y1="-62.4519" x2="825.968" y2="1099.51" stroke="#9747FF" stroke-width="0.992458"/>
<line x1="349.589" y1="-62.4519" x2="349.589" y2="1099.51" stroke="#9747FF" stroke-width="0.992458"/>
<line x1="1302.35" y1="-62.4523" x2="1302.35" y2="1099.51" stroke="#9747FF" stroke-width="0.992458"/>
<line x1="111.397" y1="-62.4519" x2="111.397" y2="1099.51" stroke="#9747FF" stroke-width="0.992458"/>
<line x1="1064.16" y1="-62.4519" x2="1064.16" y2="1099.51" stroke="#9747FF" stroke-width="0.992458"/>
<line x1="587.778" y1="-62.4519" x2="587.778" y2="1099.51" stroke="#9747FF" stroke-width="0.992458"/>
<line x1="945.062" y1="-62.4519" x2="945.062" y2="1099.51" stroke="#9747FF" stroke-width="0.992458"/>
<line x1="468.681" y1="-62.4519" x2="468.681" y2="1099.51" stroke="#9747FF" stroke-width="0.992458"/>
<line x1="1421.44" y1="-62.4523" x2="1421.44" y2="1099.51" stroke="#9747FF" stroke-width="0.992458"/>
<line x1="230.492" y1="-62.4519" x2="230.492" y2="1099.51" stroke="#9747FF" stroke-width="0.992458"/>
<line x1="1183.25" y1="-62.4519" x2="1183.25" y2="1099.51" stroke="#9747FF" stroke-width="0.992458"/>
<line x1="706.873" y1="-62.4519" x2="706.873" y2="1099.51" stroke="#9747FF" stroke-width="0.992458"/>
<line x1="865.664" y1="-62.4519" x2="865.664" y2="1099.51" stroke="#9747FF" stroke-width="0.992458"/>
<line x1="389.288" y1="-62.4519" x2="389.288" y2="1099.51" stroke="#9747FF" stroke-width="0.992458"/>
<line x1="1342.05" y1="-62.4523" x2="1342.05" y2="1099.51" stroke="#9747FF" stroke-width="0.992458"/>
<line x1="151.096" y1="-62.4519" x2="151.096" y2="1099.51" stroke="#9747FF" stroke-width="0.992458"/>
<line x1="1103.86" y1="-62.4519" x2="1103.86" y2="1099.51" stroke="#9747FF" stroke-width="0.992458"/>
<line x1="627.475" y1="-62.4519" x2="627.475" y2="1099.51" stroke="#9747FF" stroke-width="0.992458"/>
<line x1="32.004" y1="-62.4519" x2="32.0039" y2="1099.51" stroke="#9747FF" stroke-width="0.992458"/>
<line x1="984.759" y1="-62.4519" x2="984.759" y2="1099.51" stroke="#9747FF" stroke-width="0.992458"/>
<line x1="508.383" y1="-62.4519" x2="508.383" y2="1099.51" stroke="#9747FF" stroke-width="0.992458"/>
<line x1="270.191" y1="-62.4519" x2="270.191" y2="1099.51" stroke="#9747FF" stroke-width="0.992458"/>
<line x1="1222.95" y1="-62.4523" x2="1222.95" y2="1099.51" stroke="#9747FF" stroke-width="0.992458"/>
<line x1="746.572" y1="-62.4519" x2="746.572" y2="1099.51" stroke="#9747FF" stroke-width="0.992458"/>
<line x1="845.816" y1="-62.4519" x2="845.816" y2="1099.51" stroke="#9747FF" stroke-width="0.992458"/>
<line x1="369.437" y1="-62.4519" x2="369.437" y2="1099.51" stroke="#9747FF" stroke-width="0.992458"/>
<line x1="1322.2" y1="-62.4523" x2="1322.2" y2="1099.51" stroke="#9747FF" stroke-width="0.992458"/>
<line x1="131.248" y1="-62.4519" x2="131.248" y2="1099.51" stroke="#9747FF" stroke-width="0.992458"/>
<line x1="1084.01" y1="-62.4519" x2="1084.01" y2="1099.51" stroke="#9747FF" stroke-width="0.992458"/>
<line x1="607.627" y1="-62.4519" x2="607.626" y2="1099.51" stroke="#9747FF" stroke-width="0.992458"/>
<line x1="12.1531" y1="-62.4519" x2="12.153" y2="1099.51" stroke="#9747FF" stroke-width="0.992458"/>
<line x1="964.911" y1="-62.4519" x2="964.911" y2="1099.51" stroke="#9747FF" stroke-width="0.992458"/>
<line x1="488.529" y1="-62.4519" x2="488.529" y2="1099.51" stroke="#9747FF" stroke-width="0.992458"/>
<line x1="250.342" y1="-62.4519" x2="250.342" y2="1099.51" stroke="#9747FF" stroke-width="0.992458"/>
<line x1="1203.1" y1="-62.4519" x2="1203.1" y2="1099.51" stroke="#9747FF" stroke-width="0.992458"/>
<line x1="726.721" y1="-62.4519" x2="726.721" y2="1099.51" stroke="#9747FF" stroke-width="0.992458"/>
<line y1="-0.496229" x2="1885" y2="-0.496229" transform="matrix(-1 -0.000137886 0.000344219 -1 1698.51 528.58)" stroke="#9747FF" stroke-width="0.992458"/>
<line y1="-0.496229" x2="1885" y2="-0.496229" transform="matrix(-1 -0.000136067 0.000348822 -1 1698.67 52.201)" stroke="#9747FF" stroke-width="0.992458"/>
<line y1="-0.496229" x2="1885" y2="-0.496229" transform="matrix(-1 -0.000136067 0.000348822 -1 1698.34 1004.96)" stroke="#9747FF" stroke-width="0.992458"/>
<line y1="-0.496229" x2="1885" y2="-0.496229" transform="matrix(-1 -0.000136067 0.000348822 -1 1698.42 766.77)" stroke="#9747FF" stroke-width="0.992458"/>
<line y1="-0.496229" x2="1885" y2="-0.496229" transform="matrix(-1 -0.000136067 0.000348822 -1 1698.58 290.391)" stroke="#9747FF" stroke-width="0.992458"/>
<line y1="-0.496229" x2="1885" y2="-0.496229" transform="matrix(-1 -0.000136067 0.000348822 -1 1698.46 647.675)" stroke="#9747FF" stroke-width="0.992458"/>
<line y1="-0.496229" x2="1885" y2="-0.496229" transform="matrix(-1 -0.000134294 0.000353425 -1 1698.62 171.295)" stroke="#9747FF" stroke-width="0.992458"/>
<line y1="-0.496229" x2="1885" y2="-0.496229" transform="matrix(-1 -0.000136067 0.000348822 -1 1698.38 885.864)" stroke="#9747FF" stroke-width="0.992458"/>
<line y1="-0.496229" x2="1885" y2="-0.496229" transform="matrix(-1 -0.000136067 0.000348822 -1 1698.54 409.486)" stroke="#9747FF" stroke-width="0.992458"/>
<line y1="-0.496229" x2="1885" y2="-0.496229" transform="matrix(-1 -0.000134294 0.000353425 -1 1698.49 568.279)" stroke="#9747FF" stroke-width="0.992458"/>
<line y1="-0.496229" x2="1885" y2="-0.496229" transform="matrix(-1 -0.000137886 0.000344219 -1 1698.66 91.8992)" stroke="#9747FF" stroke-width="0.992458"/>
<line y1="-0.496229" x2="1885" y2="-0.496229" transform="matrix(-1 -0.000136067 0.000348822 -1 1698.41 806.468)" stroke="#9747FF" stroke-width="0.992458"/>
<line y1="-0.496229" x2="1885" y2="-0.496229" transform="matrix(-1 -0.000136067 0.000348822 -1 1698.57 330.089)" stroke="#9747FF" stroke-width="0.992458"/>
<line y1="-0.496229" x2="1885" y2="-0.496229" transform="matrix(-1 -0.000136067 0.000348822 -1 1698.45 687.374)" stroke="#9747FF" stroke-width="0.992458"/>
<line y1="-0.496229" x2="1885" y2="-0.496229" transform="matrix(-1 -0.000139755 0.000339616 -1 1698.62 210.994)" stroke="#9747FF" stroke-width="0.992458"/>
<line y1="-0.496229" x2="1885" y2="-0.496229" transform="matrix(-1 -0.000136067 0.000348822 -1 1698.36 925.563)" stroke="#9747FF" stroke-width="0.992458"/>
<line y1="-0.496229" x2="1885" y2="-0.496229" transform="matrix(-1 -0.000136067 0.000348822 -1 1698.53 449.184)" stroke="#9747FF" stroke-width="0.992458"/>
<line y1="-0.496229" x2="1885" y2="-0.496229" transform="matrix(-1 -0.000134294 0.000353425 -1 1698.49 548.43)" stroke="#9747FF" stroke-width="0.992458"/>
<line y1="-0.496229" x2="1885" y2="-0.496229" transform="matrix(-1 -0.000137886 0.000344219 -1 1698.66 72.0493)" stroke="#9747FF" stroke-width="0.992458"/>
<line y1="-0.496229" x2="1885" y2="-0.496229" transform="matrix(-1 -0.000136067 0.000348822 -1 1698.41 786.619)" stroke="#9747FF" stroke-width="0.992458"/>
<line y1="-0.496229" x2="1885" y2="-0.496229" transform="matrix(-1 -0.000136067 0.000348822 -1 1698.58 310.24)" stroke="#9747FF" stroke-width="0.992458"/>
<line y1="-0.496229" x2="1885" y2="-0.496229" transform="matrix(-1 -0.000136067 0.000348822 -1 1698.46 667.524)" stroke="#9747FF" stroke-width="0.992458"/>
<line y1="-0.496229" x2="1885" y2="-0.496229" transform="matrix(-1 -0.000134294 0.000353425 -1 1698.62 191.145)" stroke="#9747FF" stroke-width="0.992458"/>
<line y1="-0.496229" x2="1885" y2="-0.496229" transform="matrix(-1 -0.000136067 0.000348822 -1 1698.37 905.714)" stroke="#9747FF" stroke-width="0.992458"/>
<line y1="-0.496229" x2="1885" y2="-0.496229" transform="matrix(-1 -0.000137886 0.000344219 -1 1698.54 429.334)" stroke="#9747FF" stroke-width="0.992458"/>
<line y1="-0.496229" x2="1885" y2="-0.496229" transform="matrix(-1 -0.000136067 0.000348822 -1 1698.48 588.128)" stroke="#9747FF" stroke-width="0.992458"/>
<line y1="-0.496229" x2="1885" y2="-0.496229" transform="matrix(-1 -0.000137886 0.000344219 -1 1698.65 111.747)" stroke="#9747FF" stroke-width="0.992458"/>
<line y1="-0.496229" x2="1885" y2="-0.496229" transform="matrix(-1 -0.000136067 0.000348822 -1 1698.4 826.317)" stroke="#9747FF" stroke-width="0.992458"/>
<line y1="-0.496229" x2="1885" y2="-0.496229" transform="matrix(-1 -0.000136067 0.000348822 -1 1698.57 349.938)" stroke="#9747FF" stroke-width="0.992458"/>
<line y1="-0.496229" x2="1885" y2="-0.496229" transform="matrix(-1 -0.000136067 0.000348822 -1 1698.44 707.222)" stroke="#9747FF" stroke-width="0.992458"/>
<line y1="-0.496229" x2="1885" y2="-0.496229" transform="matrix(-1 -0.000136067 0.000348822 -1 1698.6 230.843)" stroke="#9747FF" stroke-width="0.992458"/>
<line y1="-0.496229" x2="1885" y2="-0.496229" transform="matrix(-1 -0.000136067 0.000348822 -1 1698.36 945.412)" stroke="#9747FF" stroke-width="0.992458"/>
<line y1="-0.496229" x2="1885" y2="-0.496229" transform="matrix(-1 -0.000136067 0.000348822 -1 1698.52 469.033)" stroke="#9747FF" stroke-width="0.992458"/>
<line y1="-0.496229" x2="1885" y2="-0.496229" transform="matrix(-1 -0.000136067 0.000348822 -1 1698.47 627.826)" stroke="#9747FF" stroke-width="0.992458"/>
<line y1="-0.496229" x2="1885" y2="-0.496229" transform="matrix(-1 -0.000137886 0.000344219 -1 1698.63 151.447)" stroke="#9747FF" stroke-width="0.992458"/>
<line y1="-0.496229" x2="1885" y2="-0.496229" transform="matrix(-1 -0.000136067 0.000348822 -1 1698.38 866.016)" stroke="#9747FF" stroke-width="0.992458"/>
<line y1="-0.496229" x2="1885" y2="-0.496229" transform="matrix(-1 -0.000136067 0.000348822 -1 1698.55 389.636)" stroke="#9747FF" stroke-width="0.992458"/>
<line y1="-0.496229" x2="1885" y2="-0.496229" transform="matrix(-1 -0.000136067 0.000348822 -1 1698.43 746.922)" stroke="#9747FF" stroke-width="0.992458"/>
<line y1="-0.496229" x2="1885" y2="-0.496229" transform="matrix(-1 -0.000136067 0.000348822 -1 1698.6 270.541)" stroke="#9747FF" stroke-width="0.992458"/>
<line y1="-0.496229" x2="1885" y2="-0.496229" transform="matrix(-1 -0.000134294 0.000353425 -1 1698.68 32.3512)" stroke="#9747FF" stroke-width="0.992458"/>
<line y1="-0.496229" x2="1885" y2="-0.496229" transform="matrix(-1 -0.000136067 0.000348822 -1 1698.34 985.11)" stroke="#9747FF" stroke-width="0.992458"/>
<line y1="-0.496229" x2="1885" y2="-0.496229" transform="matrix(-1 -0.000136067 0.000348822 -1 1698.51 508.732)" stroke="#9747FF" stroke-width="0.992458"/>
<line y1="-0.496229" x2="1885" y2="-0.496229" transform="matrix(-1 -0.000136067 0.000348822 -1 1698.47 607.977)" stroke="#9747FF" stroke-width="0.992458"/>
<line y1="-0.496229" x2="1885" y2="-0.496229" transform="matrix(-1 -0.000137886 0.000344219 -1 1698.64 131.597)" stroke="#9747FF" stroke-width="0.992458"/>
<line y1="-0.496229" x2="1885" y2="-0.496229" transform="matrix(-1 -0.000136067 0.000348822 -1 1698.39 846.166)" stroke="#9747FF" stroke-width="0.992458"/>
<line y1="-0.496229" x2="1885" y2="-0.496229" transform="matrix(-1 -0.000136067 0.000348822 -1 1698.56 369.788)" stroke="#9747FF" stroke-width="0.992458"/>
<line y1="-0.496229" x2="1885" y2="-0.496229" transform="matrix(-1 -0.000136067 0.000348822 -1 1698.43 727.072)" stroke="#9747FF" stroke-width="0.992458"/>
<line y1="-0.496229" x2="1885" y2="-0.496229" transform="matrix(-1 -0.000134294 0.000353425 -1 1698.6 250.692)" stroke="#9747FF" stroke-width="0.992458"/>
<line y1="-0.496229" x2="1885" y2="-0.496229" transform="matrix(-1 -0.000141675 0.000335013 -1 1698.69 12.5023)" stroke="#9747FF" stroke-width="0.992458"/>
<line y1="-0.496229" x2="1885" y2="-0.496229" transform="matrix(-1 -0.000136067 0.000348822 -1 1698.35 965.262)" stroke="#9747FF" stroke-width="0.992458"/>
<line y1="-0.496229" x2="1885" y2="-0.496229" transform="matrix(-1 -0.000137886 0.000344219 -1 1698.52 488.882)" stroke="#9747FF" stroke-width="0.992458"/>
</g>
</mask>
<g mask="url(#mask0_29_212)">
<g filter="url(#filter0_f_29_212)">
<rect x="276" y="37.9999" width="960.688" height="960.688" rx="480.344" fill="url(#paint0_linear_29_212)" fill-opacity="0.3"/>
</g>
</g>
<defs>
<filter id="filter0_f_29_212" x="73.5385" y="-164.462" width="1365.61" height="1365.61" filterUnits="userSpaceOnUse" color-interpolation-filters="sRGB">
<feFlood flood-opacity="0" result="BackgroundImageFix"/>
<feBlend mode="normal" in="SourceGraphic" in2="BackgroundImageFix" result="shape"/>
<feGaussianBlur stdDeviation="101.231" result="effect1_foregroundBlur_29_212"/>
</filter>
<linearGradient id="paint0_linear_29_212" x1="756.344" y1="37.9999" x2="756.344" y2="998.688" gradientUnits="userSpaceOnUse">
<stop/>
<stop offset="1" stop-color="#0071E3"/>
</linearGradient>
</defs>
</svg>
